# xmcd CD database file
#
# Track frame offsets:
#	150
#	39336
#	69185
#	92433
#	115643
#	139716
#	159320
#	180040
#	204774
#	230159
#	262333
#	283346
#	330317
#
# Disc length: 4408 seconds
#
# Revision: 3
# Processed by: cddbd v1.5.1PL0 Copyright (c) Steve Scherf et al.
# Submitted via: CDex 1.51
#
DISCID=a511360d
DTITLE=Earl Klugh - In Concert [DVD]
DYEAR=2003
DGENRE=Jazz
TTITLE0=Wiggle
TTITLE1=Living Inside Your Love
TTITLE2=Wind And The Sea
TTITLE3=	Rayna
TTITLE4=Midnight In San Juan
TTITLE5=Take It From The Top
TTITLE6=Private Affair
TTITLE7=Whispers And Promises
TTITLE8=Tropical Legs
TTITLE9=Mount Airy Road
TTITLE10=Last Song
TTITLE11=Dr
TTITLE12=	Macumba
EXTD=YEAR: 2003
EXTT0=
EXTT1=
EXTT2=
EXTT3=
EXTT4=
EXTT5=
EXTT6=
EXTT7=
EXTT8=
EXTT9=
EXTT10=
EXTT11=
EXTT12=
PLAYORDER=
